<?xml version="1.0" encoding="UTF-8" standalone="no" ?>
<!DOCTYPE svg PUBLIC "-//W3C//DTD SVG 1.1//EN" "http://www.w3.org/Graphics/SVG/1.1/DTD/svg11.dtd">
<svg xmlns="http://www.w3.org/2000/svg" xmlns:xlink="http://www.w3.org/1999/xlink" version="1.1" width="144" height="38" viewBox="0 0 144 38" xml:space="preserve">
<desc>Created with Fabric.js 5.2.4</desc>
<defs>
</defs>
<rect x="0" y="0" width="100%" height="100%" fill="transparent"></rect>
<g transform="matrix(Infinity NaN NaN Infinity 0 0)" id="2ed1ca4d-141c-40d5-9f54-f474afc76e5b"  >
</g>
<g transform="matrix(1 0 0 1 72 19)" id="bb913e62-50cf-4564-a4dd-89dfa5dbf9c7"  >
<rect style="stroke: none; stroke-width: 1; stroke-dasharray: none; stroke-linecap: butt; stroke-dashoffset: 0; stroke-linejoin: miter; stroke-miterlimit: 4; fill: rgb(255,255,255); fill-rule: nonzero; opacity: 1; visibility: hidden;" vector-effect="non-scaling-stroke"  x="-72" y="-19" rx="0" ry="0" width="144" height="38" />
</g>
<g transform="matrix(1.23 0 0 1.23 19.7 19)"  >
<path style="stroke: none; stroke-width: 1; stroke-dasharray: none; stroke-linecap: butt; stroke-dashoffset: 0; stroke-linejoin: miter; stroke-miterlimit: 4; fill: rgb(0,122,255); fill-rule: evenodd; opacity: 1;" vector-effect="non-scaling-stroke"  transform=" translate(-15.5, -19.5)" d="M 0 17.7778 C 0 11.2829 -2.05305e-7 8.03542 2.0177 6.0177 C 4.03542 4 7.28286 4 13.7778 4 L 17.2222 4 C 23.7171 4 26.9647 4 28.9822 6.0177 C 31 8.03542 31 11.2829 31 17.7778 L 31 21.2222 C 31 27.7171 31 30.9647 28.9822 32.9822 C 26.9647 35 23.7171 35 17.2222 35 L 13.7778 35 C 7.28286 35 4.03542 35 2.0177 32.9822 C -2.05305e-7 30.9647 0 27.7171 0 21.2222 L 0 17.7778 Z M 25.8333 11.75 C 25.8333 13.1767 24.6767 14.3333 23.25 14.3333 C 21.8233 14.3333 20.6667 13.1767 20.6667 11.75 C 20.6667 10.3233 21.8233 9.16667 23.25 9.16667 C 24.6767 9.16667 25.8333 10.3233 25.8333 11.75 Z M 18.9444 21.2222 C 18.9444 23.1246 17.4024 24.6667 15.5 24.6667 C 13.5976 24.6667 12.0556 23.1246 12.0556 21.2222 C 12.0556 19.3199 13.5976 17.7778 15.5 17.7778 C 17.4024 17.7778 18.9444 19.3199 18.9444 21.2222 Z M 22.3889 21.2222 C 22.3889 25.0268 19.3046 28.1111 15.5 28.1111 C 11.6954 28.1111 8.61111 25.0268 8.61111 21.2222 C 8.61111 17.4177 11.6954 14.3333 15.5 14.3333 C 19.3046 14.3333 22.3889 17.4177 22.3889 21.2222 Z" stroke-linecap="round" />
</g>
<g transform="matrix(0.25 0 0 0.38 90.73 19)" style="" id="d8ad614d-da5a-469c-ae1c-d6082ac8ca49"  >
		<text xml:space="preserve" font-family="Alegreya" font-size="87" font-style="normal" font-weight="700" style="stroke: none; stroke-width: 1; stroke-dasharray: none; stroke-linecap: butt; stroke-dashoffset: 0; stroke-linejoin: miter; stroke-miterlimit: 4; fill: rgb(0,0,0); fill-rule: nonzero; opacity: 1; white-space: pre;" ><tspan x="-189.88" y="27.33" >Chitra - AI</tspan></text>
</g>
</svg>